<?xml version="1.0" encoding="UTF-8" standalone="no"?>
<svg width="37px" height="32px" viewBox="0 0 37 32" version="1.1" xmlns="http://www.w3.org/2000/svg" xmlns:xlink="http://www.w3.org/1999/xlink" xmlns:sketch="http://www.bohemiancoding.com/sketch/ns">
    <!-- Generator: Sketch 3.4.4 (17249) - http://www.bohemiancoding.com/sketch -->
    <title>doubleFrontArrow_icon</title>
    <desc>Created with Sketch.</desc>
    <defs></defs>
    <g id="Page-1" stroke="none" stroke-width="1" fill="none" fill-rule="evenodd" sketch:type="MSPage">
        <g id="doubleFrontArrow_icon" sketch:type="MSArtboardGroup" transform="translate(-32.000000, -34.000000)" fill="#000000">
            <g sketch:type="MSLayerGroup" transform="translate(50.500000, 50.000000) rotate(-180.000000) translate(-50.500000, -50.000000) translate(32.000000, 34.000000)">
                <path d="M15.7276894,14.2123183 C14.7727418,14.93856 14.7548125,16.3689659 15.691257,17.1189151 L33.7314912,31.5663907 C34.5262736,32.2028903 35.686557,32.0745766 36.3230565,31.2797941 C36.959556,30.4850116 36.8312423,29.3247283 36.0364599,28.6882288 L17.9962257,14.2407531 L17.9597932,17.1473498 L36.1529107,3.31140748 C36.9633973,2.69502904 37.120753,1.53832641 36.5043746,0.727839848 C35.8879962,-0.0826467158 34.7312935,-0.240002443 33.920807,0.376375994 L15.7276894,14.2123183 Z M0.72763474,14.2122107 C-0.227312895,14.9384524 -0.245242183,16.3688583 0.691202277,17.1188075 L18.7314365,31.5662832 C19.526219,32.2027827 20.6865023,32.074469 21.3230018,31.2796865 C21.9595013,30.484904 21.8311877,29.3246207 21.0364052,28.6881212 L2.99617098,14.2406455 L2.95973851,17.1472422 L21.152856,3.31129989 C21.9633426,2.69492145 22.1206983,1.53821882 21.5043199,0.727732261 C20.8879415,-0.0827543033 19.7312388,-0.240110031 18.9207523,0.376268407 L0.72763474,14.2122107 Z" sketch:type="MSShapeGroup"></path>
            </g>
        </g>
    </g>
</svg>